<svg id="Layer_1" data-name="Layer 1" xmlns="http://www.w3.org/2000/svg" viewBox="0 0 386.59 115.8"><defs><style>.cls-1{fill:#c18d2c;}.cls-2{fill:#0f9247;}</style></defs><title>logo</title><path class="cls-1" d="M420.73,295.18a1.49,1.49,0,0,0-.62-.87,1.45,1.45,0,0,0-.82-.32,1.15,1.15,0,0,0-.71.22.85.85,0,0,1-.54.23H344.68a4.9,4.9,0,0,1,1.94-3.29,6.79,6.79,0,0,1,3.79-1.49h1.84a28.33,28.33,0,0,1,6.34.74c1.87.43,3.46.87,4.86,1.32l-.44-1.21-1.1-.43a46.27,46.27,0,0,0-6.08-2,29.55,29.55,0,0,0-6.78-.86l-.92,0a8.24,8.24,0,0,0-5.6,2,7.13,7.13,0,0,0-2,5.13H303.94a5.8,5.8,0,0,0-1-1.5,5.32,5.32,0,0,0-3.2-1.66,19.92,19.92,0,0,0-3.41-.37,37.71,37.71,0,0,0-6.89.8l-.59,1.14,1.07-.22a19.49,19.49,0,0,1,2.17-.27c.74-.06,1.34-.08,1.81-.08s1.16,0,1.73.07c2,.21,3.16.92,3.59,2.09H286.38a5,5,0,0,1,1.95-3.29,6.79,6.79,0,0,1,3.79-1.49H294a28.33,28.33,0,0,1,6.34.74c1.87.43,3.46.87,4.86,1.32l-.53-1.31-1.1-.42a45.2,45.2,0,0,0-6-1.88,29.55,29.55,0,0,0-6.78-.86l-.92,0a8.22,8.22,0,0,0-5.6,2,7.13,7.13,0,0,0-2,5.13H266.36l-.05,0h-1.18L263,296a27.47,27.47,0,0,0-3.6,3.2,14.06,14.06,0,0,0-3.11,4.81,6.39,6.39,0,0,0-.41,2.21,6.15,6.15,0,0,0,.3,1.88,8.37,8.37,0,0,0,3.31,4.09,17,17,0,0,0,4.38,2.21c.64.23,1.29.44,1.95.64a52.68,52.68,0,0,0,5.58,1.21c1.64.25,2.71.39,3.23.41l1.32-.78-1.25-.11a31.19,31.19,0,0,1-3.18-.49,28.62,28.62,0,0,1-4-1.1,14.36,14.36,0,0,1-3.24-1.59,7,7,0,0,1-2.87-2.81,5.93,5.93,0,0,1-.74-2.49,8.07,8.07,0,0,1,1.29-4,20.55,20.55,0,0,1,4.79-5l.59.14a2,2,0,0,1,1.14.68,2.18,2.18,0,0,1,.48,1.27v1.33a7.11,7.11,0,0,0-4.46,5.08,3.5,3.5,0,0,0-.19,1.11q0,3.09,4.83,4.42a10.21,10.21,0,0,0,1.95.22,4.18,4.18,0,0,0,1.84-.37,2.7,2.7,0,0,0,1.59-2.58,2.32,2.32,0,0,0-1.18-2.06,3.28,3.28,0,0,0-1.59-.48,2.55,2.55,0,0,0-1.73.74,1.82,1.82,0,0,0-.55,1.36,2,2,0,0,0,1,1.66l-.33.11a2.76,2.76,0,0,1-.44,0,2.59,2.59,0,0,1-.52-.05.88.88,0,0,1-.52-.32.89.89,0,0,1-.22-.58l0-.52q.38-3.09,1.68-4.2a3.73,3.73,0,0,1,2.11-1.11,2.65,2.65,0,0,1,1.9.94,9.42,9.42,0,0,1,1.59,2.34,10.16,10.16,0,0,1,.92,3.43v5.89h3.83V296.51h2V316.8h3.83V296.51h2.53v15.27a1.7,1.7,0,0,0,1.33,1.63,11.18,11.18,0,0,0,3.68.48,22.17,22.17,0,0,0,3.36-.26,17.59,17.59,0,0,0,3-.66l.44-.19,0,2.8a7,7,0,0,0-.77-.55,3.33,3.33,0,0,0-1.85-.48,8.28,8.28,0,0,0-3.86,1.36,6.55,6.55,0,0,1-3,.92,2.44,2.44,0,0,1-.59-.07,4.12,4.12,0,0,1-1.77-.9v1.93l.13.15a8.7,8.7,0,0,0,2.3,1.62,3.91,3.91,0,0,0,1.7.4,3.24,3.24,0,0,0,1.27-.26,16.55,16.55,0,0,0,1.86-.95c1.23-.67,2.07-1.08,2.51-1.26l.29,0a1.71,1.71,0,0,1,1.77,1.47V320h3.83V309.91l.23-.26a7.65,7.65,0,0,0,1.29-3.9,4.23,4.23,0,0,0-.19-1.26,11.14,11.14,0,0,0-4.08-6,3.5,3.5,0,0,0-2.25-.81,5.7,5.7,0,0,0-3.91,2c-1.15,1.18-1.75,2.06-1.78,2.62s-.06.89-.06,1a2.92,2.92,0,0,0,1,2.26,3,3,0,0,0,2,.91,2.34,2.34,0,0,0,1-.26,2.44,2.44,0,0,0,1.51-2.25,3.63,3.63,0,0,0-.11-.81,2.2,2.2,0,0,0-2.14-1.69,2.56,2.56,0,0,0-.81.14l.08-.33a1.5,1.5,0,0,1,.4-.77,1.07,1.07,0,0,1,.48-.33h.26a.82.82,0,0,1,.49.16l.5.35c.54.47,1.12,1,1.73,1.66v0a3.7,3.7,0,0,1,1,2.69,6,6,0,0,1-1.18,3.61,4.17,4.17,0,0,1-2.3,1.52,9.61,9.61,0,0,1-2.16.32,6.16,6.16,0,0,1-1.36-.15c-1-.19-1.43-.61-1.43-1.25V296.51h21a32.16,32.16,0,0,0-2.91,2.68,13.78,13.78,0,0,0-3.11,4.81,6.17,6.17,0,0,0-.41,2.21,6.46,6.46,0,0,0,.29,1.88,8.39,8.39,0,0,0,3.32,4.09,16.67,16.67,0,0,0,4.38,2.21c.64.23,1.29.44,1.95.64a52.68,52.68,0,0,0,5.58,1.21c1.63.25,2.71.39,3.22.41l1.33-.78-1.25-.11a31.74,31.74,0,0,1-3.19-.49,28.5,28.5,0,0,1-4-1.1,14.36,14.36,0,0,1-3.24-1.59,7.07,7.07,0,0,1-2.88-2.81,6,6,0,0,1-.73-2.49,8.07,8.07,0,0,1,1.29-4,20.11,20.11,0,0,1,4.85-5l.79.18a2,2,0,0,1,1.15.68,2.18,2.18,0,0,1,.48,1.27v1.33a7.09,7.09,0,0,0-4.46,5.08,3.5,3.5,0,0,0-.19,1.11q0,3.09,4.82,4.42a10.4,10.4,0,0,0,2,.22,4.18,4.18,0,0,0,1.84-.37,2.71,2.71,0,0,0,1.58-2.58,2.29,2.29,0,0,0-1.17-2.06,3.28,3.28,0,0,0-1.59-.48,2.55,2.55,0,0,0-1.73.74,1.82,1.82,0,0,0-.55,1.36,2,2,0,0,0,1,1.66l-.33.11a2.9,2.9,0,0,1-.45,0,2.56,2.56,0,0,1-.51-.05.88.88,0,0,1-.52-.32A.89.89,0,0,1,320,310l0-.52q.38-3.09,1.68-4.2a3.73,3.73,0,0,1,2.11-1.11,2.65,2.65,0,0,1,1.9.94,9.42,9.42,0,0,1,1.59,2.34,10.16,10.16,0,0,1,.92,3.43v5.89h3.83V296.51h.81a1.23,1.23,0,0,1,1.23.77,4.15,4.15,0,0,1,.38,1.55v18h3.83V296.51h2.3V316.8h3.83V296.51H359v11.12a18.51,18.51,0,0,0-3.2-3.74,8.18,8.18,0,0,0-2.91-1.9,7.55,7.55,0,0,0-1.44-.25A2.48,2.48,0,0,0,349.3,303l0,0a15.43,15.43,0,0,0-1.58,3.1,11.37,11.37,0,0,0-1,3.75c0,2.07,1.61,3.54,4.83,4.43a10.09,10.09,0,0,0,1.91.22,4.15,4.15,0,0,0,1.84-.37,2.71,2.71,0,0,0,1.63-2.58,2.31,2.31,0,0,0-1.18-2.06,3.28,3.28,0,0,0-1.59-.48,2.54,2.54,0,0,0-1.73.73,1.86,1.86,0,0,0-.55,1.37,2,2,0,0,0,.92,1.66l-.3.11a3,3,0,0,1-.47,0,1.33,1.33,0,0,1-1-.37.91.91,0,0,1-.22-.58,2.68,2.68,0,0,0,0-.52,13.68,13.68,0,0,1,1.88-5,1.59,1.59,0,0,1,1-.81,4.91,4.91,0,0,1,.63-.07,1.71,1.71,0,0,1,1.14.44,9.39,9.39,0,0,1,3.64,6.85v4h3.83V296.46h56.41a2.28,2.28,0,0,0,1.18-.3.79.79,0,0,0,.32-1M276.65,305.24a7.81,7.81,0,0,0-3.86-3.61v-.81a4.09,4.09,0,0,0-.87-2.57,4.29,4.29,0,0,0-2.3-1.52l-.54-.15.11-.07h7.47Zm51.63,0a7.81,7.81,0,0,0-3.86-3.61v-.81a4.09,4.09,0,0,0-.87-2.57,4.29,4.29,0,0,0-2.3-1.52l-.73-.2,0,0h7.75Z" transform="translate(-58.84 -204.2)"/><path class="cls-2" d="M439.74,236H440v0a6.44,6.44,0,0,0,2.78-.68,2.43,2.43,0,0,0,1.38-2.34,2.57,2.57,0,0,0-.9-2.06,2.77,2.77,0,0,0-1.76-.76,3.3,3.3,0,0,0-1.81.54,2.9,2.9,0,0,1-1.46.54H402.82a6.5,6.5,0,0,1,2.65,1.65,6.86,6.86,0,0,1,1.6,3.14Z" transform="translate(-58.84 -204.2)"/><path class="cls-2" d="M271.91,231.22H253v0H227.69L225.6,236h16.6c5.7,0,7.12.53,7.12,3.64v30.67a17.76,17.76,0,0,0-3.38-1.16,25.84,25.84,0,0,0,.87-6.38,30.69,30.69,0,0,0-5.16-17,22.18,22.18,0,0,0-3.37-3.93,27.77,27.77,0,0,0-3.32-2.58A11.56,11.56,0,0,0,232.2,238a7.39,7.39,0,0,0-1.84-.37h-1a13.07,13.07,0,0,0-5.34,1.17,15.5,15.5,0,0,0-4.72,3.25,16.16,16.16,0,0,0-3.38,5,16.34,16.34,0,0,0-1.29,6.63,11.39,11.39,0,0,0,.37,2.82,9.9,9.9,0,0,0,1,2.64,5.82,5.82,0,0,0,1.78,1.91,4.56,4.56,0,0,0,2.58.73,5.06,5.06,0,0,0,3.62-1.47,5.71,5.71,0,0,0,1.66-4,6,6,0,0,0-.74-3l-.24-.49-.74-2a6.36,6.36,0,0,1-.37-2.21,5.75,5.75,0,0,1,1.35-3.74,4.36,4.36,0,0,1,3.56-1.66q2.34,0,3.81,2.95a14.36,14.36,0,0,1,1.48,6.51,29.9,29.9,0,0,1-1.05,8,20.67,20.67,0,0,1-3.08,6.63,16.54,16.54,0,0,1-4.87,4.54,12.32,12.32,0,0,1-6.53,1.72,16.93,16.93,0,0,1-7.15-1.47,16.56,16.56,0,0,1-5.43-3.93,17.84,17.84,0,0,1-3.45-5.71,19.12,19.12,0,0,1-1.23-6.82,14.07,14.07,0,0,1,2.58-8.47,8.44,8.44,0,0,0,.92-1.47,4.29,4.29,0,0,0,.43-2,4.71,4.71,0,0,0-.86-2.45A2.85,2.85,0,0,0,201.5,240a2.81,2.81,0,0,0-2.4,1.41,13.25,13.25,0,0,0-1.62,3.56,23.44,23.44,0,0,0-.9,4.67c-.16,1.67-.23,3.21-.23,4.6a34.3,34.3,0,0,0,2.08,11.85,33.19,33.19,0,0,0,5.83,10.13,28.47,28.47,0,0,0,9,7.06,24.91,24.91,0,0,0,21.42.43,15.59,15.59,0,0,0,2.21-1.23,15.4,15.4,0,0,0,6.53-7c5.31,2,5.93,8.41,5.93,8.41h8.18c6.3,0,5.91-5.19,5.91-7.48h0V239.26a12.41,12.41,0,0,0-.32-2.91h.61c1.77.44,2.32,1.37,2.32,3.3v44.2h8.18c6.3,0,5.91-5.19,5.91-7.47h0V239.24c0-5.15-2.09-8-8.2-8" transform="translate(-58.84 -204.2)"/><path class="cls-2" d="M334,231.22H314.23v0H293.07v0H276a6.39,6.39,0,0,1,2.7,1.67,6.75,6.75,0,0,1,1.6,3.11h4.32a7.43,7.43,0,0,0-.37,2.6,1.08,1.08,0,0,1,0,.18,15.08,15.08,0,0,0,2.43,6.52,34.84,34.84,0,0,0,7.13,7.55l-.12.12a15.79,15.79,0,0,0-8.36,5.1,14.66,14.66,0,0,0-3.16,9.76,17.79,17.79,0,0,0,1.23,6.88,16.4,16.4,0,0,0,3.13,5,13.15,13.15,0,0,0,4.3,3.07,11.87,11.87,0,0,0,4.73,1,8.43,8.43,0,0,0,6.57-2.64,9.6,9.6,0,0,0,2.39-6.69v-.74a2.13,2.13,0,0,0-.8-1.66,2.72,2.72,0,0,0-1.78-.67,2.09,2.09,0,0,0-1.9.86,3.33,3.33,0,0,0-.55,1.84l.37,1.84a2.84,2.84,0,0,1-.62,1.78,1.9,1.9,0,0,1-1.59.8,3.67,3.67,0,0,1-3.14-1.59,6.19,6.19,0,0,1-.92-3.32,10.44,10.44,0,0,1,1-4.54,11.84,11.84,0,0,1,2.51-3.56,12.58,12.58,0,0,1,3.38-2.34,8.71,8.71,0,0,1,3.68-.86,6.5,6.5,0,0,1,5.34,2.34,7.51,7.51,0,0,1,1.91,4.79v8.27h0v6.18h8.34c5.3,0,6-3.61,6-6.18h0V239.19c0-.08,0-.13,0-.22a14.27,14.27,0,0,0-.2-2.51h.57c1.49.48,2,1.4,2,3.19v44.2h8.19c6.29,0,5.9-5.19,5.9-7.47h0V239.24c0-5.15-2.1-8-8.21-8M311.43,259a61.6,61.6,0,0,0-5.85-3.87,43.81,43.81,0,0,1-4.56-3,11.36,11.36,0,0,1-2.92-3.07,7.84,7.84,0,0,1-1-4.23,13.51,13.51,0,0,1,3.53-8.84h6.26c2.67,0,4.58.68,4.58,3.2Z" transform="translate(-58.84 -204.2)"/><path class="cls-2" d="M443.77,249a19.12,19.12,0,0,0-4.55-6.32,20.26,20.26,0,0,0-6.63-4.05,22.28,22.28,0,0,0-7.92-1.41,16.13,16.13,0,0,0-5.22.85,14.58,14.58,0,0,0-4.42,2.4,11.61,11.61,0,0,0-3.07,3.81,10.93,10.93,0,0,0-1.16,5.09,12.11,12.11,0,0,0,.74,4,18.78,18.78,0,0,0,1.9,4,12.1,12.1,0,0,0,2.82,3.13,5.62,5.62,0,0,0,3.5,1.29,5.1,5.1,0,0,0,3.38-1.47,5,5,0,0,0,1.65-3.93q0-2.82-1.59-3.93a16,16,0,0,0-4.42-2c-1-.17-1.52-.9-1.6-2.21a4.1,4.1,0,0,1,2-3.38,9.17,9.17,0,0,1,4.54-1.66,6.32,6.32,0,0,1,5.59,3.19,14.4,14.4,0,0,1,2,7.86,11.56,11.56,0,0,1-1,4.79A14.93,14.93,0,0,1,427.8,263a11,11,0,0,1-3.62,2.7,9.9,9.9,0,0,1-4.3,1,31.37,31.37,0,0,1-4.35-.3,25.16,25.16,0,0,1-4.61-1.17,1.85,1.85,0,0,0-1.29.31,2.76,2.76,0,0,0-.55,1.16,3.85,3.85,0,0,0,.61,2.09l.12.25a75.56,75.56,0,0,0,10.75,17.43,55.85,55.85,0,0,0,12.95,11.79,3.63,3.63,0,0,0,1.85.49,3.46,3.46,0,0,0,2.63-1.29,3.93,3.93,0,0,0,1.17-2.64,4,4,0,0,0-.8-2.45,3.85,3.85,0,0,0-2.27-1.48,11.75,11.75,0,0,1-4.36-1.9,24.13,24.13,0,0,1-6.94-7.55,42.31,42.31,0,0,1-2.33-4.67l2.83.13a22.79,22.79,0,0,0,8.16-1.42,18.15,18.15,0,0,0,6.39-4,17.86,17.86,0,0,0,4.11-6.26,21.66,21.66,0,0,0,1.48-8.1,19.64,19.64,0,0,0-1.66-8.11" transform="translate(-58.84 -204.2)"/><path class="cls-2" d="M398.65,231.22H382.74v.06c-.34,0-.64-.06-1-.06H338.16a6.49,6.49,0,0,1,2.71,1.67,6.84,6.84,0,0,1,1.59,3.11h26c5.7,0,7.12.54,7.12,3.65v14.92q-6.51-5.4-13.75-5.4a18.14,18.14,0,0,0-6.75,1.22,15.87,15.87,0,0,0-5.35,3.5,16.34,16.34,0,0,0-3.56,5.47,18.52,18.52,0,0,0-1.29,7,17.8,17.8,0,0,0,1.48,7.42,17,17,0,0,0,8.9,8.85,13.81,13.81,0,0,0,5.34,1.16,10.13,10.13,0,0,0,7.49-2.82,10,10,0,0,0,2.82-7.37,7.62,7.62,0,0,0-.79-3.44,2.75,2.75,0,0,0-2.64-1.59,2.88,2.88,0,0,0-2.34,1,3.25,3.25,0,0,0-.86,2,3.85,3.85,0,0,0,.62,2.08,3.38,3.38,0,0,1,.61,1.72,2.45,2.45,0,0,1-.67,1.72,2.29,2.29,0,0,1-1.76.74,4.14,4.14,0,0,1-3.85-2.7,13.44,13.44,0,0,1-1-4.91q.24-6.51,2.62-10.44a7.39,7.39,0,0,1,6.64-3.93,8,8,0,0,1,5.61,2.27,7.47,7.47,0,0,1,2.44,5.71v13.42h0v6.56h8.35c5.57,0,6-4,6-6.56h0V239.24a12.5,12.5,0,0,0-.33-2.93h.61c1.92.41,2.52,1.34,2.52,3.34v44.2h8.19c6.3,0,5.91-5.19,5.91-7.47h0V239.24c0-5.15-2.1-8-8.2-8" transform="translate(-58.84 -204.2)"/><path class="cls-2" d="M131.06,272.77l-3.41.89Z" transform="translate(-58.84 -204.2)"/><path class="cls-1" d="M163.67,288.29l3.42.8Z" transform="translate(-58.84 -204.2)"/><path class="cls-2" d="M134.46,271.89l-3.4.88-3.41.89h0A31.59,31.59,0,1,1,112.21,254l.4-.31a34.92,34.92,0,0,1,6.26-3.84,38.35,38.35,0,0,0-21.58-6.72c-.67,0-1.36,0-2,.07a19,19,0,0,0,4.89-4c1.84-2.15,2.67-4.52,1.76-7.37-.64-2-1.09-4.11-1.63-6.17s-1.17-4.41-1.71-6.63a8.18,8.18,0,0,0-4-5.22,17.73,17.73,0,0,0-8.71-2.29,32.41,32.41,0,0,0-14,2.71,22.91,22.91,0,0,0-8.47,5.85c-2.42,2.76-3.49,5.8-2.38,9.52,1.24,4.18,2.24,8.43,3.32,12.65a6.36,6.36,0,0,0,2.81,3.9,15.21,15.21,0,0,0,7.65,2.16c1.1.05,2.19,0,3.27,0a38.45,38.45,0,1,0,56.36,23.61m-61-27A10.43,10.43,0,0,1,69,243.45a3.32,3.32,0,0,1-1.56-2.14c-.62-2.45-1.27-4.89-1.94-7.49,5.66,2.42,11.32,2.15,17,.67s10.68-4,14.44-8.85c.11.46.21.81.3,1.16.53,2,1,4.08,1.6,6.1a3.74,3.74,0,0,1-.62,3.44,15.37,15.37,0,0,1-5.51,4.52,32.8,32.8,0,0,1-19.23,4" transform="translate(-58.84 -204.2)"/><path class="cls-2" d="M134.46,271.89a38.28,38.28,0,0,0-7.84-15.08l-.46.15a25.88,25.88,0,0,0-6.17,3,31.17,31.17,0,0,1,7.66,13.71l3.41-.89Z" transform="translate(-58.84 -204.2)"/><path class="cls-2" d="M117.19,217.28s-8.13.33-10.71-3.36,1.17-6.81,4.45-5.39c0,0-.43-4.48,4.19-4.32,4.95.16,3.84,9.69,2.07,13.07" transform="translate(-58.84 -204.2)"/><path class="cls-1" d="M127.61,228.83s-3.59-6.08-1.82-9.55,5.68-1.9,5.94,1.19c0,0,3.25-2.16,5,1.43,1.9,3.85-5.84,6.9-9.14,6.93" transform="translate(-58.84 -204.2)"/><path class="cls-2" d="M119.13,237s-4.77-.37-6-2.7,1.15-3.89,3-2.84a2.25,2.25,0,0,1,2.75-2.23c2.87.44,1.56,5.92.3,7.77" transform="translate(-58.84 -204.2)"/><path class="cls-1" d="M124.81,244.87s-1.08-3,0-4.41a1.4,1.4,0,0,1,2.55,1,1.5,1.5,0,0,1,2.11,1.06c.53,1.88-3.18,2.59-4.66,2.32" transform="translate(-58.84 -204.2)"/><path class="cls-1" d="M159.64,259.1c.68-6,1.46-11.94,2.09-17.92a39.22,39.22,0,0,0,.23-7.73,7.82,7.82,0,0,0-4.53-6.64l-1.41-.6c-3.68-1.09-7.36.18-10,3.67-1.39,1.82-2.62,3.78-3.84,5.72-2.5,3.94-4.95,7.91-7.41,11.88l-.62,0a33.89,33.89,0,0,0-32.93,26.1,33.69,33.69,0,0,0,11.57,33.95l.32-.2a30,30,0,0,0,5.41-4.25,26.79,26.79,0,0,1,7.31-47.21,26.37,26.37,0,0,1,8.32-1.35A26.86,26.86,0,0,1,161,281.3a27.35,27.35,0,0,1-.72,6.18l3.42.81,3.42.8a33.69,33.69,0,0,0-7.45-30m-11.33-26.32a5.92,5.92,0,0,1,9.77,1.67c.08.21.89.86-.19,1-1.74-4-4.85-5.17-8.71-2.67.11.05.23.15.33.14a10.14,10.14,0,0,1,8.21,2.91h0l.15.2.06-.18c.21.12.56.2.6.36,1.26,4.63-4.09,10.31-8.73,9.28a2.17,2.17,0,0,1-.74-.44c-4-2.9-4.36-8.41-.76-12.21" transform="translate(-58.84 -204.2)"/><path class="cls-1" d="M160.25,287.48a26.81,26.81,0,0,1-32.27,20l-.6-.17-.37.42a39.19,39.19,0,0,1-5.4,5.05,33.73,33.73,0,0,0,45.48-23.65l-3.42-.8Z" transform="translate(-58.84 -204.2)"/></svg>